<svg width="32" height="33" viewBox="0 0 32 33" fill="none" xmlns="http://www.w3.org/2000/svg">
<path d="M16 0.5C24.5651 0.5 31.4998 7.48104 31.5 16.0908C31.5 23.8836 25.8155 30.3615 18.374 31.4941L17.7988 31.582V19.9727H21.377L21.8906 16.5908H17.7988V13.292C17.7988 12.6092 17.9677 11.8825 18.459 11.3203C18.9613 10.7456 19.7333 10.4189 20.7783 10.4189H22.1533V7.63477C21.9869 7.61026 21.7768 7.57972 21.5352 7.55078C20.9111 7.47604 20.086 7.40237 19.2666 7.40234C17.6792 7.40234 16.4117 7.89966 15.541 8.78906C14.6697 9.67919 14.1416 11.0182 14.1416 12.8057V16.5908H10.3311V19.9727H14.1416V31.582L13.5654 31.4941C6.12114 30.361 0.5 23.8807 0.5 16.0908C0.500246 7.48104 7.43486 0.5 16 0.5Z" fill="white"/>
<path d="M16 0.5C24.5651 0.5 31.4998 7.48104 31.5 16.0908C31.5 23.8836 25.8155 30.3615 18.374 31.4941L17.7988 31.582V19.9727H21.377L21.8906 16.5908H17.7988V13.292C17.7988 12.6092 17.9677 11.8825 18.459 11.3203C18.9613 10.7456 19.7333 10.4189 20.7783 10.4189H22.1533V7.63477C21.9869 7.61026 21.7768 7.57972 21.5352 7.55078C20.9111 7.47604 20.086 7.40237 19.2666 7.40234C17.6792 7.40234 16.4117 7.89966 15.541 8.78906C14.6697 9.67919 14.1416 11.0182 14.1416 12.8057V16.5908H10.3311V19.9727H14.1416V31.582L13.5654 31.4941C6.12114 30.361 0.5 23.8807 0.5 16.0908C0.500246 7.48104 7.43486 0.5 16 0.5Z" stroke="black"/>
<path d="M16 0.5C24.5651 0.5 31.4998 7.48104 31.5 16.0908C31.5 23.8836 25.8155 30.3615 18.374 31.4941L17.7988 31.582V19.9727H21.377L21.8906 16.5908H17.7988V13.292C17.7988 12.6092 17.9677 11.8825 18.459 11.3203C18.9613 10.7456 19.7333 10.4189 20.7783 10.4189H22.1533V7.63477C21.9869 7.61026 21.7768 7.57972 21.5352 7.55078C20.9111 7.47604 20.086 7.40237 19.2666 7.40234C17.6792 7.40234 16.4117 7.89966 15.541 8.78906C14.6697 9.67919 14.1416 11.0182 14.1416 12.8057V16.5908H10.3311V19.9727H14.1416V31.582L13.5654 31.4941C6.12114 30.361 0.5 23.8807 0.5 16.0908C0.500246 7.48104 7.43486 0.5 16 0.5Z" stroke="black" stroke-opacity="0.2"/>
</svg>
