<svg width="25" height="24" viewBox="0 0 25 24" fill="none" xmlns="http://www.w3.org/2000/svg">
<g id="fluent:people-community-12-filled">
<path id="Vector" d="M10.3301 5C10.3301 5.39397 10.2525 5.78407 10.1017 6.14805C9.95095 6.51203 9.72997 6.84274 9.4514 7.12132C9.17282 7.3999 8.84211 7.62087 8.47813 7.77164C8.11415 7.9224 7.72404 8 7.33008 8C6.93611 8 6.546 7.9224 6.18203 7.77164C5.81805 7.62087 5.48733 7.3999 5.20876 7.12132C4.93018 6.84274 4.7092 6.51203 4.55844 6.14805C4.40768 5.78407 4.33008 5.39397 4.33008 5C4.33008 4.20435 4.64615 3.44129 5.20876 2.87868C5.77137 2.31607 6.53443 2 7.33008 2C8.12573 2 8.88879 2.31607 9.4514 2.87868C10.014 3.44129 10.3301 4.20435 10.3301 5ZM12.3301 14C12.724 14 13.1142 13.9224 13.4781 13.7716C13.8421 13.6209 14.1728 13.3999 14.4514 13.1213C14.73 12.8427 14.951 12.512 15.1017 12.1481C15.2525 11.7841 15.3301 11.394 15.3301 11C15.3301 10.606 15.2525 10.2159 15.1017 9.85195C14.951 9.48797 14.73 9.15726 14.4514 8.87868C14.1728 8.6001 13.8421 8.37913 13.4781 8.22836C13.1142 8.0776 12.724 8 12.3301 8C11.5344 8 10.7714 8.31607 10.2088 8.87868C9.64615 9.44129 9.33008 10.2044 9.33008 11C9.33008 11.7956 9.64615 12.5587 10.2088 13.1213C10.7714 13.6839 11.5344 14 12.3301 14ZM7.43008 10H4.33008C3.79965 10 3.29094 10.2107 2.91586 10.5858C2.54079 10.9609 2.33008 11.4696 2.33008 12V12.414C2.33008 13.606 3.01608 14.586 3.92408 15.228C4.46808 15.614 5.11808 15.9 5.82808 16.068C6.36608 15.092 7.30008 14.368 8.41208 14.106C7.95764 13.5353 7.63413 12.8717 7.46444 12.1622C7.29475 11.4527 7.28302 10.7146 7.43008 10ZM16.2501 14.106C16.7934 14.2344 17.3038 14.4752 17.7485 14.8127C18.1932 15.1503 18.5623 15.5772 18.8321 16.066C19.5421 15.9 20.1921 15.614 20.7361 15.228C21.6441 14.588 22.3301 13.606 22.3301 12.414V12C22.3301 11.4696 22.1194 10.9609 21.7443 10.5858C21.3692 10.2107 20.8605 10 20.3301 10H17.2301C17.3747 10.7145 17.3619 11.4519 17.1926 12.161C17.0234 12.8701 16.7018 13.5338 16.2501 14.106ZM9.33008 16C8.79964 16 8.29094 16.2107 7.91586 16.5858C7.54079 16.9609 7.33008 17.4696 7.33008 18V18.334C7.33008 19.508 8.04408 20.45 8.94608 21.05C9.85608 21.66 11.0561 22 12.3301 22C13.6041 22 14.8041 21.658 15.7141 21.05C16.6141 20.45 17.3301 19.508 17.3301 18.334V18C17.3301 17.4696 17.1194 16.9609 16.7443 16.5858C16.3692 16.2107 15.8605 16 15.3301 16H9.33008ZM18.3301 8C19.1257 8 19.8888 7.68393 20.4514 7.12132C21.014 6.55871 21.3301 5.79565 21.3301 5C21.3301 4.20435 21.014 3.44129 20.4514 2.87868C19.8888 2.31607 19.1257 2 18.3301 2C17.5344 2 16.7714 2.31607 16.2088 2.87868C15.6461 3.44129 15.3301 4.20435 15.3301 5C15.3301 5.79565 15.6461 6.55871 16.2088 7.12132C16.7714 7.68393 17.5344 8 18.3301 8Z" fill="url(#paint0_linear_257_2903)"/>
</g>
<defs>
<linearGradient id="paint0_linear_257_2903" x1="12.3301" y1="2" x2="12.3301" y2="22" gradientUnits="userSpaceOnUse">
<stop stop-color="#FFECEC"/>
<stop offset="1" stop-color="#666666"/>
</linearGradient>
</defs>
</svg>
