<svg width="24" height="24" viewBox="0 0 24 24" fill="none" xmlns="http://www.w3.org/2000/svg">
<g id="fluent-emoji-flat:money-bag">
<g id="Group">
<path id="Vector" fill-rule="evenodd" clip-rule="evenodd" d="M13.08 2.53893C13.3275 2.82393 13.7475 2.87643 14.055 2.65893C14.655 2.23143 15.435 2.87643 15.1275 3.53643L13.3125 5.61393H10.41L8.58 3.51393C8.2725 2.84643 9.0525 2.20143 9.6525 2.62893L9.705 2.66643C10.0125 2.88393 10.4325 2.82393 10.6725 2.53893L11.325 1.75893C11.3922 1.67792 11.4765 1.61271 11.5717 1.56796C11.667 1.5232 11.771 1.5 11.8763 1.5C11.9815 1.5 12.0855 1.5232 12.1808 1.56796C12.276 1.61271 12.3603 1.67792 12.4275 1.75893L13.08 2.53893ZM3 15.9189C3 11.0139 6.975 7.03893 11.88 7.03893C16.785 7.03893 20.76 11.0139 20.7525 15.9189C20.7525 19.5414 17.8125 22.4814 14.19 22.4814H9.5625C5.94 22.4814 3 19.5414 3 15.9189Z" fill="#F3C07B"/>
<path id="Vector_2" fill-rule="evenodd" clip-rule="evenodd" d="M10.5903 5.59863H13.1703C13.6278 5.59863 14.0028 5.97363 14.0028 6.43113C14.0028 6.88863 13.6278 7.26363 13.1703 7.26363H10.5903C10.1328 7.26363 9.75781 6.88863 9.75781 6.43113C9.75781 5.97363 10.1328 5.59863 10.5903 5.59863ZM11.8803 14.5086H11.9328C13.0578 14.5386 13.9578 15.4536 13.9578 16.5786C13.9578 17.5386 13.3053 18.3411 12.4203 18.5811V19.4211C12.4203 19.7211 12.1803 19.9611 11.8803 19.9611C11.5803 19.9611 11.3403 19.7211 11.3403 19.4211V18.5811C10.8997 18.4625 10.5104 18.2022 10.2325 17.8402C9.9546 17.4783 9.8036 17.0349 9.80281 16.5786C9.80281 16.2786 10.0428 16.0386 10.3428 16.0386C10.6428 16.0386 10.8828 16.2786 10.8828 16.5786C10.8828 17.1336 11.3253 17.5761 11.8728 17.5761C12.4203 17.5761 12.8703 17.1261 12.8703 16.5786C12.8703 16.0311 12.4203 15.5811 11.8728 15.5811H11.8203C11.2808 15.5665 10.7682 15.3421 10.3915 14.9556C10.0148 14.569 9.80359 14.0509 9.80281 13.5111C9.80281 12.5511 10.4553 11.7486 11.3403 11.5086V10.6686C11.3403 10.3686 11.5803 10.1286 11.8803 10.1286C12.1803 10.1286 12.4203 10.3686 12.4203 10.6686V11.5086C13.3053 11.7486 13.9578 12.5511 13.9578 13.5111C13.9578 13.8111 13.7178 14.0511 13.4178 14.0511C13.1178 14.0511 12.8778 13.8111 12.8778 13.5111C12.8778 12.9636 12.4278 12.5136 11.8803 12.5136C11.3328 12.5136 10.8828 12.9636 10.8828 13.5111C10.8828 14.0586 11.3328 14.5086 11.8803 14.5086Z" fill="#8C5543"/>
</g>
</g>
</svg>
