<svg width="25" height="24" viewBox="0 0 25 24" fill="none" xmlns="http://www.w3.org/2000/svg">
<g id="streamline:network-solid">
<path id="Vector" fill-rule="evenodd" clip-rule="evenodd" d="M3.75416 7.69238C3.96763 5.92894 4.69914 4.26838 5.8562 2.9206C7.01326 1.57283 8.54394 0.598362 10.2547 0.120377C8.71359 2.54952 7.84616 5.07466 7.71416 7.69238H3.75416ZM3.75416 9.83524H7.76902C8.02616 12.3655 8.95702 14.9129 10.529 17.4775C8.7573 17.0424 7.16008 16.078 5.94985 14.7128C4.73963 13.3477 3.97377 11.6464 3.75416 9.83524ZM21.5656 9.83524C21.347 11.637 20.5878 13.3303 19.3879 14.692C18.188 16.0538 16.6038 17.0202 14.8439 17.4638C16.4313 14.9421 17.3673 12.3964 17.6039 9.83524H21.5656ZM12.677 16.8655C14.2953 14.4535 15.2022 12.1118 15.4507 9.83524H9.92559C10.193 12.0775 11.0879 14.4175 12.677 16.8655ZM9.86045 7.69238H15.4884C15.3153 5.27866 14.3913 2.84952 12.6547 0.394663C10.9233 2.81181 10.0079 5.23923 9.86045 7.69238ZM21.5639 7.69238H17.6382C17.477 5.10381 16.5993 2.57695 15.0427 0.115234C16.7578 0.590374 18.293 1.56423 19.4537 2.91324C20.6144 4.26226 21.3483 5.92565 21.5622 7.69238H21.5639ZM11.3742 19.8004V21.3364H4.08845C3.74746 21.3364 3.42043 21.4718 3.17931 21.713C2.93819 21.9541 2.80273 22.2811 2.80273 22.6221C2.80273 22.9631 2.93819 23.2901 3.17931 23.5312C3.42043 23.7723 3.74746 23.9078 4.08845 23.9078H21.2313C21.5723 23.9078 21.8993 23.7723 22.1404 23.5312C22.3816 23.2901 22.517 22.9631 22.517 22.6221C22.517 22.2811 22.3816 21.9541 22.1404 21.713C21.8993 21.4718 21.5723 21.3364 21.2313 21.3364H13.9456V19.8004C13.0912 19.8981 12.2285 19.8981 11.3742 19.8004Z" fill="url(#paint0_linear_257_2922)"/>
</g>
<defs>
<linearGradient id="paint0_linear_257_2922" x1="12.6599" y1="0.115234" x2="12.6599" y2="23.9078" gradientUnits="userSpaceOnUse">
<stop stop-color="#B1D8FF"/>
<stop offset="1" stop-color="#245E8D"/>
</linearGradient>
</defs>
</svg>
