<svg width="25" height="25" viewBox="0 0 25 25" fill="none" xmlns="http://www.w3.org/2000/svg">
<g id="mingcute:code-fill" clip-path="url(#clip0_257_2960)">
<g id="Group">
<path id="Vector" d="M14.9505 3.16238C15.1404 3.21549 15.3178 3.30548 15.4728 3.42722C15.6279 3.54895 15.7574 3.70004 15.8539 3.87185C15.9505 4.04366 16.0123 4.23283 16.0357 4.42852C16.0592 4.62422 16.0438 4.82262 15.9905 5.01238L11.5595 20.7994C11.4521 21.1825 11.1969 21.5072 10.8501 21.7022C10.5032 21.8971 10.0932 21.9463 9.71005 21.8389C9.32694 21.7315 9.0022 21.4763 8.80725 21.1294C8.61231 20.7826 8.56313 20.3725 8.67055 19.9894L13.1015 4.20038C13.1548 4.01067 13.2448 3.83329 13.3666 3.67839C13.4884 3.52349 13.6395 3.3941 13.8113 3.29761C13.9831 3.20113 14.1722 3.13944 14.3679 3.11606C14.5635 3.09269 14.7619 3.10809 14.9515 3.16138L14.9505 3.16238ZM7.89055 7.19738C8.17145 7.47863 8.32923 7.85988 8.32923 8.25738C8.32923 8.65489 8.17145 9.03613 7.89055 9.31738L4.71055 12.5004L7.89255 15.6824C8.17381 15.9638 8.33177 16.3454 8.33167 16.7432C8.33158 17.1411 8.17344 17.5226 7.89205 17.8039C7.61065 18.0851 7.22905 18.2431 6.83119 18.243C6.43334 18.2429 6.05181 18.0848 5.77055 17.8034L1.52755 13.5604C1.24665 13.2791 1.08887 12.8979 1.08887 12.5004C1.08887 12.1029 1.24665 11.7216 1.52755 11.4404L5.76955 7.19738C5.90885 7.05799 6.07425 6.94742 6.2563 6.87198C6.43835 6.79654 6.63348 6.7577 6.83055 6.7577C7.02761 6.7577 7.22274 6.79654 7.40479 6.87198C7.58685 6.94742 7.75125 7.05799 7.89055 7.19738ZM16.7705 9.31738C16.6232 9.18006 16.505 9.01446 16.423 8.83046C16.341 8.64646 16.2969 8.44783 16.2934 8.24643C16.2898 8.04502 16.3269 7.84497 16.4023 7.65819C16.4777 7.47141 16.59 7.30174 16.7325 7.15931C16.8749 7.01687 17.0446 6.90458 17.2314 6.82914C17.4181 6.7537 17.6182 6.71665 17.8196 6.7202C18.021 6.72375 18.2196 6.76784 18.4036 6.84982C18.5876 6.93181 18.7532 7.05001 18.8905 7.19738L23.1335 11.4394C23.4148 11.7207 23.5727 12.1021 23.5727 12.4999C23.5727 12.8976 23.4148 13.2791 23.1335 13.5604L18.8915 17.8034C18.7523 17.9427 18.5869 18.0533 18.4049 18.1287C18.223 18.2041 18.0279 18.243 17.8309 18.243C17.6339 18.2431 17.4388 18.2043 17.2568 18.129C17.0748 18.0536 16.9094 17.9432 16.77 17.8039C16.6307 17.6646 16.5202 17.4993 16.4447 17.3173C16.3693 17.1353 16.3305 16.9402 16.3304 16.7432C16.3304 16.5462 16.3691 16.3512 16.4445 16.1691C16.5198 15.9871 16.6303 15.8217 16.7695 15.6824L19.9515 12.5004L16.7705 9.31738Z" fill="url(#paint0_linear_257_2960)"/>
</g>
</g>
<defs>
<linearGradient id="paint0_linear_257_2960" x1="12.3308" y1="3.10547" x2="12.3308" y2="21.8946" gradientUnits="userSpaceOnUse">
<stop stop-color="#D1CF86"/>
<stop offset="1" stop-color="#666666"/>
</linearGradient>
<clipPath id="clip0_257_2960">
<rect width="24" height="24" fill="white" transform="translate(0.330078 0.5)"/>
</clipPath>
</defs>
</svg>
