<svg width="63" height="63" viewBox="0 0 63 63" fill="none" xmlns="http://www.w3.org/2000/svg">
<g id="skill-icons:discord" clip-path="url(#clip0_257_3198)">
<g id="Group">
<path id="Vector" d="M48.0234 0H15.0859C7.06055 0 0.554688 6.6108 0.554688 14.7656V48.2344C0.554688 56.3892 7.06055 63 15.0859 63H48.0234C56.0488 63 62.5547 56.3892 62.5547 48.2344V14.7656C62.5547 6.6108 56.0488 0 48.0234 0Z" fill="#5865F2"/>
<g id="Clip path group">
<mask id="mask0_257_3198" style="mask-type:luminance" maskUnits="userSpaceOnUse" x="7" y="12" width="49" height="39">
<g id="skillIconsDiscord0">
<path id="Vector_2" d="M7.33594 12.5508H55.7734V50.6781H7.33594V12.5508Z" fill="white"/>
</g>
</mask>
<g mask="url(#mask0_257_3198)">
<g id="Group_2">
<path id="Vector_3" d="M48.3401 15.9458C45.1997 14.4813 41.8857 13.4367 38.4809 12.8384C38.4499 12.8327 38.418 12.837 38.3896 12.8506C38.3612 12.8643 38.3377 12.8867 38.3225 12.9147C37.8967 13.684 37.4249 14.6881 37.0948 15.477C33.3717 14.9105 29.6679 14.9105 26.0213 15.477C25.6909 14.6703 25.2022 13.684 24.7745 12.9147C24.7587 12.8872 24.7352 12.8652 24.7068 12.8516C24.6785 12.8379 24.6468 12.8334 24.6159 12.8384C21.2108 13.4354 17.8965 14.48 14.7567 15.9458C14.7299 15.9577 14.7073 15.9774 14.6918 16.0024C8.41231 25.5351 6.6923 34.8335 7.53608 44.0168C7.54122 44.0621 7.56387 44.1035 7.59905 44.1319C11.7419 47.2236 15.7552 49.1006 19.6939 50.3446C19.7245 50.3538 19.7572 50.3533 19.7876 50.3432C19.818 50.3331 19.8446 50.3138 19.8639 50.288C20.7956 48.995 21.6261 47.6319 22.3383 46.1984C22.3481 46.1788 22.3537 46.1572 22.3548 46.1352C22.3558 46.1132 22.3522 46.0913 22.3443 46.0708C22.3363 46.0503 22.3242 46.0318 22.3087 46.0164C22.2932 46.001 22.2746 45.9892 22.2543 45.9816C20.9368 45.4736 19.6825 44.8547 18.4759 44.1516C18.454 44.1385 18.4355 44.12 18.4222 44.0979C18.4089 44.0758 18.4011 44.0507 18.3996 44.0248C18.3981 43.999 18.4029 43.9731 18.4136 43.9496C18.4242 43.926 18.4404 43.9055 18.4607 43.8898C18.7152 43.6965 18.9654 43.4972 19.211 43.2923C19.2325 43.2743 19.2585 43.2627 19.2862 43.2589C19.3138 43.255 19.3419 43.2591 19.3674 43.2706C27.2947 46.9482 35.8766 46.9482 43.7102 43.2706C43.7358 43.2584 43.7642 43.2538 43.7923 43.2572C43.8203 43.2607 43.8469 43.2722 43.8688 43.2903C44.1147 43.4964 44.3655 43.6963 44.621 43.8898C44.6414 43.9053 44.6577 43.9257 44.6685 43.9492C44.6793 43.9727 44.6843 43.9984 44.683 44.0243C44.6817 44.0502 44.6741 44.0753 44.661 44.0975C44.6479 44.1197 44.6296 44.1383 44.6077 44.1516C43.4005 44.8679 42.1359 45.4794 40.8274 45.9796C40.8071 45.9876 40.7887 45.9998 40.7734 46.0154C40.7581 46.0311 40.7462 46.0498 40.7384 46.0704C40.7307 46.0911 40.7273 46.1131 40.7285 46.1352C40.7297 46.1572 40.7354 46.1787 40.7453 46.1984C41.4699 47.6206 42.2962 48.9868 43.2176 50.286C43.2364 50.3125 43.2629 50.3324 43.2934 50.3429C43.3238 50.3533 43.3568 50.354 43.3876 50.3446C47.3454 49.1006 51.3587 47.2236 55.5018 44.1319C55.5195 44.1186 55.5343 44.1016 55.5451 44.0821C55.556 44.0626 55.5627 44.041 55.5648 44.0187C56.5747 33.402 53.8731 24.1797 48.403 16.0044C48.3897 15.9778 48.3674 15.957 48.3401 15.9458ZM23.5221 38.4253C21.1354 38.4253 19.1688 36.1989 19.1688 33.4645C19.1688 30.7302 21.0974 28.5038 23.5221 28.5038C25.9658 28.5038 27.9132 30.7499 27.875 33.4645C27.875 36.1989 25.9467 38.4253 23.5221 38.4253ZM39.617 38.4253C37.2302 38.4253 35.2639 36.1989 35.2639 33.4645C35.2639 30.7302 37.1922 28.5038 39.617 28.5038C42.0606 28.5038 44.0081 30.7499 43.97 33.4645C43.97 36.1989 42.0606 38.4253 39.617 38.4253Z" fill="white"/>
</g>
</g>
</g>
</g>
</g>
<defs>
<clipPath id="clip0_257_3198">
<rect width="62" height="63" fill="white" transform="translate(0.554688)"/>
</clipPath>
</defs>
</svg>
