<svg width="1240" height="1200" viewBox="0 0 1240 1200" fill="none" xmlns="http://www.w3.org/2000/svg">
<mask id="mask0_257_1651" style="mask-type:alpha" maskUnits="userSpaceOnUse" x="0" y="0" width="1240" height="1200">
<rect width="1240" height="1200" fill="url(#paint0_linear_257_1651)"/>
</mask>
<g mask="url(#mask0_257_1651)">
<rect width="1240" height="1200" fill="url(#paint1_linear_257_1651)"/>
<g style="mix-blend-mode:plus-lighter" filter="url(#filter0_f_257_1651)">
<ellipse cx="448.499" cy="659" rx="422.5" ry="162" transform="rotate(9.96054 448.499 659)" fill="url(#paint2_linear_257_1651)"/>
</g>
<g style="mix-blend-mode:plus-lighter" filter="url(#filter1_f_257_1651)">
<ellipse cx="313" cy="824" rx="322" ry="266" fill="url(#paint3_linear_257_1651)"/>
</g>
<g opacity="0.2">
<g clip-path="url(#clip0_257_1651)">
<mask id="path-5-inside-1_257_1651" fill="white">
<path d="M1240 0H1170V919H1240V0Z"/>
</mask>
<line y1="-0.5" x2="195.433" y2="-0.5" transform="matrix(-0.895448 -0.445166 -0.445166 0.895448 1292 54)" stroke="white"/>
<line y1="-0.5" x2="195.433" y2="-0.5" transform="matrix(-0.895448 -0.445166 -0.445166 0.895448 1292 47)" stroke="white"/>
<line y1="-0.5" x2="195.433" y2="-0.5" transform="matrix(-0.895448 -0.445166 -0.445166 0.895448 1292 40)" stroke="white"/>
<line y1="-0.5" x2="195.433" y2="-0.5" transform="matrix(-0.895448 -0.445166 -0.445166 0.895448 1292 33)" stroke="white"/>
<line y1="-0.5" x2="195.433" y2="-0.5" transform="matrix(-0.895448 -0.445166 -0.445166 0.895448 1292 61)" stroke="white"/>
<line y1="-0.5" x2="195.433" y2="-0.5" transform="matrix(-0.895448 -0.445166 -0.445166 0.895448 1292 68)" stroke="white"/>
<line y1="-0.5" x2="195.433" y2="-0.5" transform="matrix(-0.895448 -0.445166 -0.445166 0.895448 1292 75)" stroke="white"/>
<line y1="-0.5" x2="195.433" y2="-0.5" transform="matrix(-0.895448 -0.445166 -0.445166 0.895448 1292 82)" stroke="white"/>
<line y1="-0.5" x2="195.433" y2="-0.5" transform="matrix(-0.895448 -0.445166 -0.445166 0.895448 1292 89)" stroke="white"/>
<line y1="-0.5" x2="195.433" y2="-0.5" transform="matrix(-0.895448 -0.445166 -0.445166 0.895448 1292 96)" stroke="white"/>
<line y1="-0.5" x2="195.433" y2="-0.5" transform="matrix(-0.895448 -0.445166 -0.445166 0.895448 1292 103)" stroke="white"/>
<line y1="-0.5" x2="195.433" y2="-0.5" transform="matrix(-0.895448 -0.445166 -0.445166 0.895448 1292 110)" stroke="white"/>
<line y1="-0.5" x2="195.433" y2="-0.5" transform="matrix(-0.895448 -0.445166 -0.445166 0.895448 1292 117)" stroke="white"/>
<line y1="-0.5" x2="195.433" y2="-0.5" transform="matrix(-0.895448 -0.445166 -0.445166 0.895448 1292 124)" stroke="white"/>
<line y1="-0.5" x2="195.433" y2="-0.5" transform="matrix(-0.895448 -0.445166 -0.445166 0.895448 1292 131)" stroke="white"/>
<line y1="-0.5" x2="195.433" y2="-0.5" transform="matrix(-0.895448 -0.445166 -0.445166 0.895448 1292 138)" stroke="white"/>
<line y1="-0.5" x2="195.433" y2="-0.5" transform="matrix(-0.895448 -0.445166 -0.445166 0.895448 1292 145)" stroke="white"/>
<line y1="-0.5" x2="195.433" y2="-0.5" transform="matrix(-0.895448 -0.445166 -0.445166 0.895448 1292 152)" stroke="white"/>
<line y1="-0.5" x2="195.433" y2="-0.5" transform="matrix(-0.895448 -0.445166 -0.445166 0.895448 1292 159)" stroke="white"/>
<line y1="-0.5" x2="195.433" y2="-0.5" transform="matrix(-0.895448 -0.445166 -0.445166 0.895448 1292 166)" stroke="white"/>
<line y1="-0.5" x2="195.433" y2="-0.5" transform="matrix(-0.895448 -0.445166 -0.445166 0.895448 1292 173)" stroke="white"/>
<line y1="-0.5" x2="195.433" y2="-0.5" transform="matrix(-0.895448 -0.445166 -0.445166 0.895448 1292 180)" stroke="white"/>
<line y1="-0.5" x2="195.433" y2="-0.5" transform="matrix(-0.895448 -0.445166 -0.445166 0.895448 1292 187)" stroke="white"/>
<line y1="-0.5" x2="195.433" y2="-0.5" transform="matrix(-0.895448 -0.445166 -0.445166 0.895448 1292 194)" stroke="white"/>
<line y1="-0.5" x2="195.433" y2="-0.5" transform="matrix(-0.895448 -0.445166 -0.445166 0.895448 1292 201)" stroke="white"/>
<line y1="-0.5" x2="195.433" y2="-0.5" transform="matrix(-0.895448 -0.445166 -0.445166 0.895448 1292 208)" stroke="white"/>
<line y1="-0.5" x2="195.433" y2="-0.5" transform="matrix(-0.895448 -0.445166 -0.445166 0.895448 1292 215)" stroke="white"/>
<line y1="-0.5" x2="195.433" y2="-0.5" transform="matrix(-0.895448 -0.445166 -0.445166 0.895448 1292 222)" stroke="white"/>
<line y1="-0.5" x2="195.433" y2="-0.5" transform="matrix(-0.895448 -0.445166 -0.445166 0.895448 1292 229)" stroke="white"/>
<line y1="-0.5" x2="195.433" y2="-0.5" transform="matrix(-0.895448 -0.445166 -0.445166 0.895448 1292 236)" stroke="white"/>
<line y1="-0.5" x2="195.433" y2="-0.5" transform="matrix(-0.895448 -0.445166 -0.445166 0.895448 1292 243)" stroke="white"/>
<line y1="-0.5" x2="195.433" y2="-0.5" transform="matrix(-0.895448 -0.445166 -0.445166 0.895448 1292 250)" stroke="white"/>
<line y1="-0.5" x2="195.433" y2="-0.5" transform="matrix(-0.895448 -0.445166 -0.445166 0.895448 1292 257)" stroke="white"/>
<line y1="-0.5" x2="195.433" y2="-0.5" transform="matrix(-0.895448 -0.445166 -0.445166 0.895448 1292 264)" stroke="white"/>
<line y1="-0.5" x2="195.433" y2="-0.5" transform="matrix(-0.895448 -0.445166 -0.445166 0.895448 1292 271)" stroke="white"/>
<line y1="-0.5" x2="195.433" y2="-0.5" transform="matrix(-0.895448 -0.445166 -0.445166 0.895448 1292 278)" stroke="white"/>
<line y1="-0.5" x2="195.433" y2="-0.5" transform="matrix(-0.895448 -0.445166 -0.445166 0.895448 1292 285)" stroke="white"/>
<line y1="-0.5" x2="195.433" y2="-0.5" transform="matrix(-0.895448 -0.445166 -0.445166 0.895448 1292 292)" stroke="white"/>
<line y1="-0.5" x2="195.433" y2="-0.5" transform="matrix(-0.895448 -0.445166 -0.445166 0.895448 1292 299)" stroke="white"/>
<line y1="-0.5" x2="195.433" y2="-0.5" transform="matrix(-0.895448 -0.445166 -0.445166 0.895448 1292 306)" stroke="white"/>
<line y1="-0.5" x2="195.433" y2="-0.5" transform="matrix(-0.895448 -0.445166 -0.445166 0.895448 1292 313)" stroke="white"/>
<line y1="-0.5" x2="195.433" y2="-0.5" transform="matrix(-0.895448 -0.445166 -0.445166 0.895448 1292 320)" stroke="white"/>
<line y1="-0.5" x2="195.433" y2="-0.5" transform="matrix(-0.895448 -0.445166 -0.445166 0.895448 1292 327)" stroke="white"/>
<line y1="-0.5" x2="195.433" y2="-0.5" transform="matrix(-0.895448 -0.445166 -0.445166 0.895448 1292 334)" stroke="white"/>
<line y1="-0.5" x2="195.433" y2="-0.5" transform="matrix(-0.895448 -0.445166 -0.445166 0.895448 1292 341)" stroke="white"/>
<line y1="-0.5" x2="195.433" y2="-0.5" transform="matrix(-0.895448 -0.445166 -0.445166 0.895448 1292 348)" stroke="white"/>
<line y1="-0.5" x2="195.433" y2="-0.5" transform="matrix(-0.895448 -0.445166 -0.445166 0.895448 1292 355)" stroke="white"/>
<line y1="-0.5" x2="195.433" y2="-0.5" transform="matrix(-0.895448 -0.445166 -0.445166 0.895448 1292 362)" stroke="white"/>
<line y1="-0.5" x2="195.433" y2="-0.5" transform="matrix(-0.895448 -0.445166 -0.445166 0.895448 1292 369)" stroke="white"/>
<line y1="-0.5" x2="195.433" y2="-0.5" transform="matrix(-0.895448 -0.445166 -0.445166 0.895448 1292 376)" stroke="white"/>
<line y1="-0.5" x2="195.433" y2="-0.5" transform="matrix(-0.895448 -0.445166 -0.445166 0.895448 1292 383)" stroke="white"/>
<line y1="-0.5" x2="195.433" y2="-0.5" transform="matrix(-0.895448 -0.445166 -0.445166 0.895448 1292 390)" stroke="white"/>
<line y1="-0.5" x2="195.433" y2="-0.5" transform="matrix(-0.895448 -0.445166 -0.445166 0.895448 1292 397)" stroke="white"/>
<line y1="-0.5" x2="195.433" y2="-0.5" transform="matrix(-0.895448 -0.445166 -0.445166 0.895448 1292 404)" stroke="white"/>
<line y1="-0.5" x2="195.433" y2="-0.5" transform="matrix(-0.895448 -0.445166 -0.445166 0.895448 1292 411)" stroke="white"/>
<line y1="-0.5" x2="195.433" y2="-0.5" transform="matrix(-0.895448 -0.445166 -0.445166 0.895448 1292 418)" stroke="white"/>
<line y1="-0.5" x2="195.433" y2="-0.5" transform="matrix(-0.895448 -0.445166 -0.445166 0.895448 1292 425)" stroke="white"/>
<line y1="-0.5" x2="195.433" y2="-0.5" transform="matrix(-0.895448 -0.445166 -0.445166 0.895448 1292 432)" stroke="white"/>
<line y1="-0.5" x2="195.433" y2="-0.5" transform="matrix(-0.895448 -0.445166 -0.445166 0.895448 1292 439)" stroke="white"/>
<line y1="-0.5" x2="195.433" y2="-0.5" transform="matrix(-0.895448 -0.445166 -0.445166 0.895448 1292 446)" stroke="white"/>
<line y1="-0.5" x2="195.433" y2="-0.5" transform="matrix(-0.895448 -0.445166 -0.445166 0.895448 1292 453)" stroke="white"/>
<line y1="-0.5" x2="195.433" y2="-0.5" transform="matrix(-0.895448 -0.445166 -0.445166 0.895448 1292 460)" stroke="white"/>
<line y1="-0.5" x2="195.433" y2="-0.5" transform="matrix(-0.895448 -0.445166 -0.445166 0.895448 1292 467)" stroke="white"/>
<line y1="-0.5" x2="195.433" y2="-0.5" transform="matrix(-0.895448 -0.445166 -0.445166 0.895448 1292 474)" stroke="white"/>
<line y1="-0.5" x2="195.433" y2="-0.5" transform="matrix(-0.895448 -0.445166 -0.445166 0.895448 1292 481)" stroke="white"/>
<line y1="-0.5" x2="195.433" y2="-0.5" transform="matrix(-0.895448 -0.445166 -0.445166 0.895448 1292 488)" stroke="white"/>
<line y1="-0.5" x2="195.433" y2="-0.5" transform="matrix(-0.895448 -0.445166 -0.445166 0.895448 1292 495)" stroke="white"/>
<line y1="-0.5" x2="195.433" y2="-0.5" transform="matrix(-0.895448 -0.445166 -0.445166 0.895448 1292 502)" stroke="white"/>
<line y1="-0.5" x2="195.433" y2="-0.5" transform="matrix(-0.895448 -0.445166 -0.445166 0.895448 1292 509)" stroke="white"/>
<line y1="-0.5" x2="195.433" y2="-0.5" transform="matrix(-0.895448 -0.445166 -0.445166 0.895448 1292 516)" stroke="white"/>
<line y1="-0.5" x2="195.433" y2="-0.5" transform="matrix(-0.895448 -0.445166 -0.445166 0.895448 1292 523)" stroke="white"/>
<line y1="-0.5" x2="195.433" y2="-0.5" transform="matrix(-0.895448 -0.445166 -0.445166 0.895448 1292 530)" stroke="white"/>
<line y1="-0.5" x2="195.433" y2="-0.5" transform="matrix(-0.895448 -0.445166 -0.445166 0.895448 1292 537)" stroke="white"/>
<line y1="-0.5" x2="195.433" y2="-0.5" transform="matrix(-0.895448 -0.445166 -0.445166 0.895448 1292 544)" stroke="white"/>
<line y1="-0.5" x2="195.433" y2="-0.5" transform="matrix(-0.895448 -0.445166 -0.445166 0.895448 1292 551)" stroke="white"/>
<line y1="-0.5" x2="195.433" y2="-0.5" transform="matrix(-0.895448 -0.445166 -0.445166 0.895448 1292 558)" stroke="white"/>
<line y1="-0.5" x2="195.433" y2="-0.5" transform="matrix(-0.895448 -0.445166 -0.445166 0.895448 1292 565)" stroke="white"/>
<line y1="-0.5" x2="195.433" y2="-0.5" transform="matrix(-0.895448 -0.445166 -0.445166 0.895448 1292 572)" stroke="white"/>
<line y1="-0.5" x2="195.433" y2="-0.5" transform="matrix(-0.895448 -0.445166 -0.445166 0.895448 1292 579)" stroke="white"/>
<line y1="-0.5" x2="195.433" y2="-0.5" transform="matrix(-0.895448 -0.445166 -0.445166 0.895448 1292 586)" stroke="white"/>
<line y1="-0.5" x2="195.433" y2="-0.5" transform="matrix(-0.895448 -0.445166 -0.445166 0.895448 1292 593)" stroke="white"/>
<line y1="-0.5" x2="195.433" y2="-0.5" transform="matrix(-0.895448 -0.445166 -0.445166 0.895448 1292 600)" stroke="white"/>
<line y1="-0.5" x2="195.433" y2="-0.5" transform="matrix(-0.895448 -0.445166 -0.445166 0.895448 1292 607)" stroke="white"/>
<line y1="-0.5" x2="195.433" y2="-0.5" transform="matrix(-0.895448 -0.445166 -0.445166 0.895448 1292 614)" stroke="white"/>
<line y1="-0.5" x2="195.433" y2="-0.5" transform="matrix(-0.895448 -0.445166 -0.445166 0.895448 1292 621)" stroke="white"/>
<line y1="-0.5" x2="195.433" y2="-0.5" transform="matrix(-0.895448 -0.445166 -0.445166 0.895448 1292 628)" stroke="white"/>
<line y1="-0.5" x2="195.433" y2="-0.5" transform="matrix(-0.895448 -0.445166 -0.445166 0.895448 1292 635)" stroke="white"/>
<line y1="-0.5" x2="195.433" y2="-0.5" transform="matrix(-0.895448 -0.445166 -0.445166 0.895448 1292 642)" stroke="white"/>
<line y1="-0.5" x2="195.433" y2="-0.5" transform="matrix(-0.895448 -0.445166 -0.445166 0.895448 1292 649)" stroke="white"/>
<line y1="-0.5" x2="195.433" y2="-0.5" transform="matrix(-0.895448 -0.445166 -0.445166 0.895448 1292 656)" stroke="white"/>
<line y1="-0.5" x2="195.433" y2="-0.5" transform="matrix(-0.895448 -0.445166 -0.445166 0.895448 1292 663)" stroke="white"/>
<line y1="-0.5" x2="195.433" y2="-0.5" transform="matrix(-0.895448 -0.445166 -0.445166 0.895448 1292 670)" stroke="white"/>
<line y1="-0.5" x2="195.433" y2="-0.5" transform="matrix(-0.895448 -0.445166 -0.445166 0.895448 1292 677)" stroke="white"/>
<line y1="-0.5" x2="195.433" y2="-0.5" transform="matrix(-0.895448 -0.445166 -0.445166 0.895448 1292 684)" stroke="white"/>
<line y1="-0.5" x2="195.433" y2="-0.5" transform="matrix(-0.895448 -0.445166 -0.445166 0.895448 1292 691)" stroke="white"/>
<line y1="-0.5" x2="195.433" y2="-0.5" transform="matrix(-0.895448 -0.445166 -0.445166 0.895448 1292 698)" stroke="white"/>
<line y1="-0.5" x2="195.433" y2="-0.5" transform="matrix(-0.895448 -0.445166 -0.445166 0.895448 1292 705)" stroke="white"/>
<line y1="-0.5" x2="195.433" y2="-0.5" transform="matrix(-0.895448 -0.445166 -0.445166 0.895448 1292 712)" stroke="white"/>
<line y1="-0.5" x2="195.433" y2="-0.5" transform="matrix(-0.895448 -0.445166 -0.445166 0.895448 1292 719)" stroke="white"/>
<line y1="-0.5" x2="195.433" y2="-0.5" transform="matrix(-0.895448 -0.445166 -0.445166 0.895448 1292 726)" stroke="white"/>
<line y1="-0.5" x2="195.433" y2="-0.5" transform="matrix(-0.895448 -0.445166 -0.445166 0.895448 1292 733)" stroke="white"/>
<line y1="-0.5" x2="195.433" y2="-0.5" transform="matrix(-0.895448 -0.445166 -0.445166 0.895448 1292 740)" stroke="white"/>
<line y1="-0.5" x2="195.433" y2="-0.5" transform="matrix(-0.895448 -0.445166 -0.445166 0.895448 1292 747)" stroke="white"/>
<line y1="-0.5" x2="195.433" y2="-0.5" transform="matrix(-0.895448 -0.445166 -0.445166 0.895448 1292 754)" stroke="white"/>
<line y1="-0.5" x2="195.433" y2="-0.5" transform="matrix(-0.895448 -0.445166 -0.445166 0.895448 1292 761)" stroke="white"/>
<line y1="-0.5" x2="195.433" y2="-0.5" transform="matrix(-0.895448 -0.445166 -0.445166 0.895448 1292 768)" stroke="white"/>
<line y1="-0.5" x2="195.433" y2="-0.5" transform="matrix(-0.895448 -0.445166 -0.445166 0.895448 1292 775)" stroke="white"/>
<line y1="-0.5" x2="195.433" y2="-0.5" transform="matrix(-0.895448 -0.445166 -0.445166 0.895448 1292 782)" stroke="white"/>
<line y1="-0.5" x2="195.433" y2="-0.5" transform="matrix(-0.895448 -0.445166 -0.445166 0.895448 1292 789)" stroke="white"/>
<line y1="-0.5" x2="195.433" y2="-0.5" transform="matrix(-0.895448 -0.445166 -0.445166 0.895448 1292 796)" stroke="white"/>
<line y1="-0.5" x2="195.433" y2="-0.5" transform="matrix(-0.895448 -0.445166 -0.445166 0.895448 1292 803)" stroke="white"/>
<line y1="-0.5" x2="195.433" y2="-0.5" transform="matrix(-0.895448 -0.445166 -0.445166 0.895448 1292 810)" stroke="white"/>
<line y1="-0.5" x2="195.433" y2="-0.5" transform="matrix(-0.895448 -0.445166 -0.445166 0.895448 1292 817)" stroke="white"/>
<line y1="-0.5" x2="195.433" y2="-0.5" transform="matrix(-0.895448 -0.445166 -0.445166 0.895448 1292 824)" stroke="white"/>
<line y1="-0.5" x2="195.433" y2="-0.5" transform="matrix(-0.895448 -0.445166 -0.445166 0.895448 1292 831)" stroke="white"/>
<line y1="-0.5" x2="195.433" y2="-0.5" transform="matrix(-0.895448 -0.445166 -0.445166 0.895448 1292 838)" stroke="white"/>
<line y1="-0.5" x2="195.433" y2="-0.5" transform="matrix(-0.895448 -0.445166 -0.445166 0.895448 1292 845)" stroke="white"/>
<line y1="-0.5" x2="195.433" y2="-0.5" transform="matrix(-0.895448 -0.445166 -0.445166 0.895448 1292 852)" stroke="white"/>
<line y1="-0.5" x2="195.433" y2="-0.5" transform="matrix(-0.895448 -0.445166 -0.445166 0.895448 1292 859)" stroke="white"/>
<line y1="-0.5" x2="195.433" y2="-0.5" transform="matrix(-0.895448 -0.445166 -0.445166 0.895448 1292 866)" stroke="white"/>
<line y1="-0.5" x2="195.433" y2="-0.5" transform="matrix(-0.895448 -0.445166 -0.445166 0.895448 1292 873)" stroke="white"/>
<line y1="-0.5" x2="195.433" y2="-0.5" transform="matrix(-0.895448 -0.445166 -0.445166 0.895448 1292 880)" stroke="white"/>
<line y1="-0.5" x2="195.433" y2="-0.5" transform="matrix(-0.895448 -0.445166 -0.445166 0.895448 1292 887)" stroke="white"/>
<line y1="-0.5" x2="195.433" y2="-0.5" transform="matrix(-0.895448 -0.445166 -0.445166 0.895448 1292 894)" stroke="white"/>
<line y1="-0.5" x2="195.433" y2="-0.5" transform="matrix(-0.895448 -0.445166 -0.445166 0.895448 1292 901)" stroke="white"/>
<line y1="-0.5" x2="195.433" y2="-0.5" transform="matrix(-0.895448 -0.445166 -0.445166 0.895448 1292 908)" stroke="white"/>
<line y1="-0.5" x2="195.433" y2="-0.5" transform="matrix(-0.895448 -0.445166 -0.445166 0.895448 1292 915)" stroke="white"/>
<line y1="-0.5" x2="195.433" y2="-0.5" transform="matrix(-0.895448 -0.445166 -0.445166 0.895448 1292 922)" stroke="white"/>
<line y1="-0.5" x2="195.433" y2="-0.5" transform="matrix(-0.895448 -0.445166 -0.445166 0.895448 1292 929)" stroke="white"/>
<line y1="-0.5" x2="195.433" y2="-0.5" transform="matrix(-0.895448 -0.445166 -0.445166 0.895448 1292 936)" stroke="white"/>
<line y1="-0.5" x2="195.433" y2="-0.5" transform="matrix(-0.895448 -0.445166 -0.445166 0.895448 1292 943)" stroke="white"/>
<line y1="-0.5" x2="195.433" y2="-0.5" transform="matrix(-0.895448 -0.445166 -0.445166 0.895448 1292 950)" stroke="white"/>
<line y1="-0.5" x2="195.433" y2="-0.5" transform="matrix(-0.895448 -0.445166 -0.445166 0.895448 1292 957)" stroke="white"/>
<line y1="-0.5" x2="195.433" y2="-0.5" transform="matrix(-0.895448 -0.445166 -0.445166 0.895448 1292 964)" stroke="white"/>
<line y1="-0.5" x2="195.433" y2="-0.5" transform="matrix(-0.895448 -0.445166 -0.445166 0.895448 1292 971)" stroke="white"/>
<line y1="-0.5" x2="195.433" y2="-0.5" transform="matrix(-0.895448 -0.445166 -0.445166 0.895448 1292 978)" stroke="white"/>
<line y1="-0.5" x2="195.433" y2="-0.5" transform="matrix(-0.895448 -0.445166 -0.445166 0.895448 1292 985)" stroke="white"/>
<line y1="-0.5" x2="195.433" y2="-0.5" transform="matrix(-0.895448 -0.445166 -0.445166 0.895448 1292 992)" stroke="white"/>
<line y1="-0.5" x2="195.433" y2="-0.5" transform="matrix(-0.895448 -0.445166 -0.445166 0.895448 1292 999)" stroke="white"/>
</g>
<path d="M1171 0V919H1169V0H1171ZM1239 919V0H1241V919H1239Z" fill="white" mask="url(#path-5-inside-1_257_1651)"/>
</g>
<g opacity="0.2">
<g clip-path="url(#clip1_257_1651)">
<mask id="path-146-inside-2_257_1651" fill="white">
<path d="M1 -2H71V917H1V-2Z"/>
</mask>
<line x1="-51.2226" y1="51.5523" x2="123.777" y2="-35.4477" stroke="white"/>
<line x1="-51.2226" y1="44.5523" x2="123.777" y2="-42.4477" stroke="white"/>
<line x1="-51.2226" y1="37.5523" x2="123.777" y2="-49.4477" stroke="white"/>
<line x1="-51.2226" y1="30.5523" x2="123.777" y2="-56.4477" stroke="white"/>
<line x1="-51.2226" y1="58.5523" x2="123.777" y2="-28.4477" stroke="white"/>
<line x1="-51.2226" y1="65.5523" x2="123.777" y2="-21.4477" stroke="white"/>
<line x1="-51.2226" y1="72.5523" x2="123.777" y2="-14.4477" stroke="white"/>
<line x1="-51.2226" y1="79.5523" x2="123.777" y2="-7.44772" stroke="white"/>
<line x1="-51.2226" y1="86.5523" x2="123.777" y2="-0.447723" stroke="white"/>
<line x1="-51.2226" y1="93.5523" x2="123.777" y2="6.55228" stroke="white"/>
<line x1="-51.2226" y1="100.552" x2="123.777" y2="13.5523" stroke="white"/>
<line x1="-51.2226" y1="107.552" x2="123.777" y2="20.5523" stroke="white"/>
<line x1="-51.2226" y1="114.552" x2="123.777" y2="27.5523" stroke="white"/>
<line x1="-51.2226" y1="121.552" x2="123.777" y2="34.5523" stroke="white"/>
<line x1="-51.2226" y1="128.552" x2="123.777" y2="41.5523" stroke="white"/>
<line x1="-51.2226" y1="135.552" x2="123.777" y2="48.5523" stroke="white"/>
<line x1="-51.2226" y1="142.552" x2="123.777" y2="55.5523" stroke="white"/>
<line x1="-51.2226" y1="149.552" x2="123.777" y2="62.5523" stroke="white"/>
<line x1="-51.2226" y1="156.552" x2="123.777" y2="69.5523" stroke="white"/>
<line x1="-51.2226" y1="163.552" x2="123.777" y2="76.5523" stroke="white"/>
<line x1="-51.2226" y1="170.552" x2="123.777" y2="83.5523" stroke="white"/>
<line x1="-51.2226" y1="177.552" x2="123.777" y2="90.5523" stroke="white"/>
<line x1="-51.2226" y1="184.552" x2="123.777" y2="97.5523" stroke="white"/>
<line x1="-51.2226" y1="191.552" x2="123.777" y2="104.552" stroke="white"/>
<line x1="-51.2226" y1="198.552" x2="123.777" y2="111.552" stroke="white"/>
<line x1="-51.2226" y1="205.552" x2="123.777" y2="118.552" stroke="white"/>
<line x1="-51.2226" y1="212.552" x2="123.777" y2="125.552" stroke="white"/>
<line x1="-51.2226" y1="219.552" x2="123.777" y2="132.552" stroke="white"/>
<line x1="-51.2226" y1="226.552" x2="123.777" y2="139.552" stroke="white"/>
<line x1="-51.2226" y1="233.552" x2="123.777" y2="146.552" stroke="white"/>
<line x1="-51.2226" y1="240.552" x2="123.777" y2="153.552" stroke="white"/>
<line x1="-51.2226" y1="247.552" x2="123.777" y2="160.552" stroke="white"/>
<line x1="-51.2226" y1="254.552" x2="123.777" y2="167.552" stroke="white"/>
<line x1="-51.2226" y1="261.552" x2="123.777" y2="174.552" stroke="white"/>
<line x1="-51.2226" y1="268.552" x2="123.777" y2="181.552" stroke="white"/>
<line x1="-51.2226" y1="275.552" x2="123.777" y2="188.552" stroke="white"/>
<line x1="-51.2226" y1="282.552" x2="123.777" y2="195.552" stroke="white"/>
<line x1="-51.2226" y1="289.552" x2="123.777" y2="202.552" stroke="white"/>
<line x1="-51.2226" y1="296.552" x2="123.777" y2="209.552" stroke="white"/>
<line x1="-51.2226" y1="303.552" x2="123.777" y2="216.552" stroke="white"/>
<line x1="-51.2226" y1="310.552" x2="123.777" y2="223.552" stroke="white"/>
<line x1="-51.2226" y1="317.552" x2="123.777" y2="230.552" stroke="white"/>
<line x1="-51.2226" y1="324.552" x2="123.777" y2="237.552" stroke="white"/>
<line x1="-51.2226" y1="331.552" x2="123.777" y2="244.552" stroke="white"/>
<line x1="-51.2226" y1="338.552" x2="123.777" y2="251.552" stroke="white"/>
<line x1="-51.2226" y1="345.552" x2="123.777" y2="258.552" stroke="white"/>
<line x1="-51.2226" y1="352.552" x2="123.777" y2="265.552" stroke="white"/>
<line x1="-51.2226" y1="359.552" x2="123.777" y2="272.552" stroke="white"/>
<line x1="-51.2226" y1="366.552" x2="123.777" y2="279.552" stroke="white"/>
<line x1="-51.2226" y1="373.552" x2="123.777" y2="286.552" stroke="white"/>
<line x1="-51.2226" y1="380.552" x2="123.777" y2="293.552" stroke="white"/>
<line x1="-51.2226" y1="387.552" x2="123.777" y2="300.552" stroke="white"/>
<line x1="-51.2226" y1="394.552" x2="123.777" y2="307.552" stroke="white"/>
<line x1="-51.2226" y1="401.552" x2="123.777" y2="314.552" stroke="white"/>
<line x1="-51.2226" y1="408.552" x2="123.777" y2="321.552" stroke="white"/>
<line x1="-51.2226" y1="415.552" x2="123.777" y2="328.552" stroke="white"/>
<line x1="-51.2226" y1="422.552" x2="123.777" y2="335.552" stroke="white"/>
<line x1="-51.2226" y1="429.552" x2="123.777" y2="342.552" stroke="white"/>
<line x1="-51.2226" y1="436.552" x2="123.777" y2="349.552" stroke="white"/>
<line x1="-51.2226" y1="443.552" x2="123.777" y2="356.552" stroke="white"/>
<line x1="-51.2226" y1="450.552" x2="123.777" y2="363.552" stroke="white"/>
<line x1="-51.2226" y1="457.552" x2="123.777" y2="370.552" stroke="white"/>
<line x1="-51.2226" y1="464.552" x2="123.777" y2="377.552" stroke="white"/>
<line x1="-51.2226" y1="471.552" x2="123.777" y2="384.552" stroke="white"/>
<line x1="-51.2226" y1="478.552" x2="123.777" y2="391.552" stroke="white"/>
<line x1="-51.2226" y1="485.552" x2="123.777" y2="398.552" stroke="white"/>
<line x1="-51.2226" y1="492.552" x2="123.777" y2="405.552" stroke="white"/>
<line x1="-51.2226" y1="499.552" x2="123.777" y2="412.552" stroke="white"/>
<line x1="-51.2226" y1="506.552" x2="123.777" y2="419.552" stroke="white"/>
<line x1="-51.2226" y1="513.552" x2="123.777" y2="426.552" stroke="white"/>
<line x1="-51.2226" y1="520.552" x2="123.777" y2="433.552" stroke="white"/>
<line x1="-51.2226" y1="527.552" x2="123.777" y2="440.552" stroke="white"/>
<line x1="-51.2226" y1="534.552" x2="123.777" y2="447.552" stroke="white"/>
<line x1="-51.2226" y1="541.552" x2="123.777" y2="454.552" stroke="white"/>
<line x1="-51.2226" y1="548.552" x2="123.777" y2="461.552" stroke="white"/>
<line x1="-51.2226" y1="555.552" x2="123.777" y2="468.552" stroke="white"/>
<line x1="-51.2226" y1="562.552" x2="123.777" y2="475.552" stroke="white"/>
<line x1="-51.2226" y1="569.552" x2="123.777" y2="482.552" stroke="white"/>
<line x1="-51.2226" y1="576.552" x2="123.777" y2="489.552" stroke="white"/>
<line x1="-51.2226" y1="583.552" x2="123.777" y2="496.552" stroke="white"/>
<line x1="-51.2226" y1="590.552" x2="123.777" y2="503.552" stroke="white"/>
<line x1="-51.2226" y1="597.552" x2="123.777" y2="510.552" stroke="white"/>
<line x1="-51.2226" y1="604.552" x2="123.777" y2="517.552" stroke="white"/>
<line x1="-51.2226" y1="611.552" x2="123.777" y2="524.552" stroke="white"/>
<line x1="-51.2226" y1="618.552" x2="123.777" y2="531.552" stroke="white"/>
<line x1="-51.2226" y1="625.552" x2="123.777" y2="538.552" stroke="white"/>
<line x1="-51.2226" y1="632.552" x2="123.777" y2="545.552" stroke="white"/>
<line x1="-51.2226" y1="639.552" x2="123.777" y2="552.552" stroke="white"/>
<line x1="-51.2226" y1="646.552" x2="123.777" y2="559.552" stroke="white"/>
<line x1="-51.2226" y1="653.552" x2="123.777" y2="566.552" stroke="white"/>
<line x1="-51.2226" y1="660.552" x2="123.777" y2="573.552" stroke="white"/>
<line x1="-51.2226" y1="667.552" x2="123.777" y2="580.552" stroke="white"/>
<line x1="-51.2226" y1="674.552" x2="123.777" y2="587.552" stroke="white"/>
<line x1="-51.2226" y1="681.552" x2="123.777" y2="594.552" stroke="white"/>
<line x1="-51.2226" y1="688.552" x2="123.777" y2="601.552" stroke="white"/>
<line x1="-51.2226" y1="695.552" x2="123.777" y2="608.552" stroke="white"/>
<line x1="-51.2226" y1="702.552" x2="123.777" y2="615.552" stroke="white"/>
<line x1="-51.2226" y1="709.552" x2="123.777" y2="622.552" stroke="white"/>
<line x1="-51.2226" y1="716.552" x2="123.777" y2="629.552" stroke="white"/>
<line x1="-51.2226" y1="723.552" x2="123.777" y2="636.552" stroke="white"/>
<line x1="-51.2226" y1="730.552" x2="123.777" y2="643.552" stroke="white"/>
<line x1="-51.2226" y1="737.552" x2="123.777" y2="650.552" stroke="white"/>
<line x1="-51.2226" y1="744.552" x2="123.777" y2="657.552" stroke="white"/>
<line x1="-51.2226" y1="751.552" x2="123.777" y2="664.552" stroke="white"/>
<line x1="-51.2226" y1="758.552" x2="123.777" y2="671.552" stroke="white"/>
<line x1="-51.2226" y1="765.552" x2="123.777" y2="678.552" stroke="white"/>
<line x1="-51.2226" y1="772.552" x2="123.777" y2="685.552" stroke="white"/>
<line x1="-51.2226" y1="779.552" x2="123.777" y2="692.552" stroke="white"/>
<line x1="-51.2226" y1="786.552" x2="123.777" y2="699.552" stroke="white"/>
<line x1="-51.2226" y1="793.552" x2="123.777" y2="706.552" stroke="white"/>
<line x1="-51.2226" y1="800.552" x2="123.777" y2="713.552" stroke="white"/>
<line x1="-51.2226" y1="807.552" x2="123.777" y2="720.552" stroke="white"/>
<line x1="-51.2226" y1="814.552" x2="123.777" y2="727.552" stroke="white"/>
<line x1="-51.2226" y1="821.552" x2="123.777" y2="734.552" stroke="white"/>
<line x1="-51.2226" y1="828.552" x2="123.777" y2="741.552" stroke="white"/>
<line x1="-51.2226" y1="835.552" x2="123.777" y2="748.552" stroke="white"/>
<line x1="-51.2226" y1="842.552" x2="123.777" y2="755.552" stroke="white"/>
<line x1="-51.2226" y1="849.552" x2="123.777" y2="762.552" stroke="white"/>
<line x1="-51.2226" y1="856.552" x2="123.777" y2="769.552" stroke="white"/>
<line x1="-51.2226" y1="863.552" x2="123.777" y2="776.552" stroke="white"/>
<line x1="-51.2226" y1="870.552" x2="123.777" y2="783.552" stroke="white"/>
<line x1="-51.2226" y1="877.552" x2="123.777" y2="790.552" stroke="white"/>
<line x1="-51.2226" y1="884.552" x2="123.777" y2="797.552" stroke="white"/>
<line x1="-51.2226" y1="891.552" x2="123.777" y2="804.552" stroke="white"/>
<line x1="-51.2226" y1="898.552" x2="123.777" y2="811.552" stroke="white"/>
<line x1="-51.2226" y1="905.552" x2="123.777" y2="818.552" stroke="white"/>
<line x1="-51.2226" y1="912.552" x2="123.777" y2="825.552" stroke="white"/>
<line x1="-51.2226" y1="919.552" x2="123.777" y2="832.552" stroke="white"/>
<line x1="-51.2226" y1="926.552" x2="123.777" y2="839.552" stroke="white"/>
<line x1="-51.2226" y1="933.552" x2="123.777" y2="846.552" stroke="white"/>
<line x1="-51.2226" y1="940.552" x2="123.777" y2="853.552" stroke="white"/>
<line x1="-51.2226" y1="947.552" x2="123.777" y2="860.552" stroke="white"/>
<line x1="-51.2226" y1="954.552" x2="123.777" y2="867.552" stroke="white"/>
<line x1="-51.2226" y1="961.552" x2="123.777" y2="874.552" stroke="white"/>
<line x1="-51.2226" y1="968.552" x2="123.777" y2="881.552" stroke="white"/>
<line x1="-51.2226" y1="975.552" x2="123.777" y2="888.552" stroke="white"/>
<line x1="-51.2226" y1="982.552" x2="123.777" y2="895.552" stroke="white"/>
<line x1="-51.2226" y1="989.552" x2="123.777" y2="902.552" stroke="white"/>
<line x1="-51.2226" y1="996.552" x2="123.777" y2="909.552" stroke="white"/>
</g>
<path d="M70 -2V917H72V-2H70ZM2 917V-2H0V917H2Z" fill="white" mask="url(#path-146-inside-2_257_1651)"/>
</g>
<g opacity="0.2">
<g clip-path="url(#clip2_257_1651)">
<mask id="path-287-inside-3_257_1651" fill="white">
<path d="M1 915H71V1834H1V915Z"/>
</mask>
<line x1="-51.2226" y1="968.552" x2="123.777" y2="881.552" stroke="white"/>
<line x1="-51.2226" y1="961.552" x2="123.777" y2="874.552" stroke="white"/>
<line x1="-51.2226" y1="954.552" x2="123.777" y2="867.552" stroke="white"/>
<line x1="-51.2226" y1="947.552" x2="123.777" y2="860.552" stroke="white"/>
<line x1="-51.2226" y1="975.552" x2="123.777" y2="888.552" stroke="white"/>
<line x1="-51.2226" y1="982.552" x2="123.777" y2="895.552" stroke="white"/>
<line x1="-51.2226" y1="989.552" x2="123.777" y2="902.552" stroke="white"/>
<line x1="-51.2226" y1="996.552" x2="123.777" y2="909.552" stroke="white"/>
<line x1="-51.2226" y1="1003.55" x2="123.777" y2="916.552" stroke="white"/>
<line x1="-51.2226" y1="1010.55" x2="123.777" y2="923.552" stroke="white"/>
<line x1="-51.2226" y1="1017.55" x2="123.777" y2="930.552" stroke="white"/>
<line x1="-51.2226" y1="1024.55" x2="123.777" y2="937.552" stroke="white"/>
<line x1="-51.2226" y1="1031.55" x2="123.777" y2="944.552" stroke="white"/>
<line x1="-51.2226" y1="1038.55" x2="123.777" y2="951.552" stroke="white"/>
<line x1="-51.2226" y1="1045.55" x2="123.777" y2="958.552" stroke="white"/>
<line x1="-51.2226" y1="1052.55" x2="123.777" y2="965.552" stroke="white"/>
<line x1="-51.2226" y1="1059.55" x2="123.777" y2="972.552" stroke="white"/>
<line x1="-51.2226" y1="1066.55" x2="123.777" y2="979.552" stroke="white"/>
<line x1="-51.2226" y1="1073.55" x2="123.777" y2="986.552" stroke="white"/>
<line x1="-51.2226" y1="1080.55" x2="123.777" y2="993.552" stroke="white"/>
<line x1="-51.2226" y1="1087.55" x2="123.777" y2="1000.55" stroke="white"/>
<line x1="-51.2226" y1="1094.55" x2="123.777" y2="1007.55" stroke="white"/>
<line x1="-51.2226" y1="1101.55" x2="123.777" y2="1014.55" stroke="white"/>
<line x1="-51.2226" y1="1108.55" x2="123.777" y2="1021.55" stroke="white"/>
<line x1="-51.2226" y1="1115.55" x2="123.777" y2="1028.55" stroke="white"/>
<line x1="-51.2226" y1="1122.55" x2="123.777" y2="1035.55" stroke="white"/>
<line x1="-51.2226" y1="1129.55" x2="123.777" y2="1042.55" stroke="white"/>
<line x1="-51.2226" y1="1136.55" x2="123.777" y2="1049.55" stroke="white"/>
<line x1="-51.2226" y1="1143.55" x2="123.777" y2="1056.55" stroke="white"/>
<line x1="-51.2226" y1="1150.55" x2="123.777" y2="1063.55" stroke="white"/>
<line x1="-51.2226" y1="1157.55" x2="123.777" y2="1070.55" stroke="white"/>
<line x1="-51.2226" y1="1164.55" x2="123.777" y2="1077.55" stroke="white"/>
<line x1="-51.2226" y1="1171.55" x2="123.777" y2="1084.55" stroke="white"/>
<line x1="-51.2226" y1="1178.55" x2="123.777" y2="1091.55" stroke="white"/>
<line x1="-51.2226" y1="1185.55" x2="123.777" y2="1098.55" stroke="white"/>
<line x1="-51.2226" y1="1192.55" x2="123.777" y2="1105.55" stroke="white"/>
<line x1="-51.2226" y1="1199.55" x2="123.777" y2="1112.55" stroke="white"/>
<line x1="-51.2226" y1="1206.55" x2="123.777" y2="1119.55" stroke="white"/>
<line x1="-51.2226" y1="1213.55" x2="123.777" y2="1126.55" stroke="white"/>
<line x1="-51.2226" y1="1220.55" x2="123.777" y2="1133.55" stroke="white"/>
<line x1="-51.2226" y1="1227.55" x2="123.777" y2="1140.55" stroke="white"/>
<line x1="-51.2226" y1="1234.55" x2="123.777" y2="1147.55" stroke="white"/>
<line x1="-51.2226" y1="1241.55" x2="123.777" y2="1154.55" stroke="white"/>
<line x1="-51.2226" y1="1248.55" x2="123.777" y2="1161.55" stroke="white"/>
<line x1="-51.2226" y1="1255.55" x2="123.777" y2="1168.55" stroke="white"/>
<line x1="-51.2226" y1="1262.55" x2="123.777" y2="1175.55" stroke="white"/>
<line x1="-51.2226" y1="1269.55" x2="123.777" y2="1182.55" stroke="white"/>
<line x1="-51.2226" y1="1276.55" x2="123.777" y2="1189.55" stroke="white"/>
<line x1="-51.2226" y1="1283.55" x2="123.777" y2="1196.55" stroke="white"/>
</g>
<path d="M70 915V1834H72V915H70ZM2 1834V915H0V1834H2Z" fill="white" mask="url(#path-287-inside-3_257_1651)"/>
</g>
<g opacity="0.2">
<g clip-path="url(#clip3_257_1651)">
<mask id="path-338-inside-4_257_1651" fill="white">
<path d="M1240 919H1170V1815H1240V919Z"/>
</mask>
<line y1="-0.5" x2="195.433" y2="-0.5" transform="matrix(-0.895448 -0.445166 -0.445166 0.895448 1292 950)" stroke="white"/>
<line y1="-0.5" x2="195.433" y2="-0.5" transform="matrix(-0.895448 -0.445166 -0.445166 0.895448 1292 943)" stroke="white"/>
<line y1="-0.5" x2="195.433" y2="-0.5" transform="matrix(-0.895448 -0.445166 -0.445166 0.895448 1292 936)" stroke="white"/>
<line y1="-0.5" x2="195.433" y2="-0.5" transform="matrix(-0.895448 -0.445166 -0.445166 0.895448 1292 929)" stroke="white"/>
<line y1="-0.5" x2="195.433" y2="-0.5" transform="matrix(-0.895448 -0.445166 -0.445166 0.895448 1292 957)" stroke="white"/>
<line y1="-0.5" x2="195.433" y2="-0.5" transform="matrix(-0.895448 -0.445166 -0.445166 0.895448 1292 964)" stroke="white"/>
<line y1="-0.5" x2="195.433" y2="-0.5" transform="matrix(-0.895448 -0.445166 -0.445166 0.895448 1292 971)" stroke="white"/>
<line y1="-0.5" x2="195.433" y2="-0.5" transform="matrix(-0.895448 -0.445166 -0.445166 0.895448 1292 978)" stroke="white"/>
<line y1="-0.5" x2="195.433" y2="-0.5" transform="matrix(-0.895448 -0.445166 -0.445166 0.895448 1292 985)" stroke="white"/>
<line y1="-0.5" x2="195.433" y2="-0.5" transform="matrix(-0.895448 -0.445166 -0.445166 0.895448 1292 992)" stroke="white"/>
<line y1="-0.5" x2="195.433" y2="-0.5" transform="matrix(-0.895448 -0.445166 -0.445166 0.895448 1292 999)" stroke="white"/>
<line y1="-0.5" x2="195.433" y2="-0.5" transform="matrix(-0.895448 -0.445166 -0.445166 0.895448 1292 1006)" stroke="white"/>
<line y1="-0.5" x2="195.433" y2="-0.5" transform="matrix(-0.895448 -0.445166 -0.445166 0.895448 1292 1013)" stroke="white"/>
<line y1="-0.5" x2="195.433" y2="-0.5" transform="matrix(-0.895448 -0.445166 -0.445166 0.895448 1292 1020)" stroke="white"/>
<line y1="-0.5" x2="195.433" y2="-0.5" transform="matrix(-0.895448 -0.445166 -0.445166 0.895448 1292 1027)" stroke="white"/>
<line y1="-0.5" x2="195.433" y2="-0.5" transform="matrix(-0.895448 -0.445166 -0.445166 0.895448 1292 1034)" stroke="white"/>
<line y1="-0.5" x2="195.433" y2="-0.5" transform="matrix(-0.895448 -0.445166 -0.445166 0.895448 1292 1041)" stroke="white"/>
<line y1="-0.5" x2="195.433" y2="-0.5" transform="matrix(-0.895448 -0.445166 -0.445166 0.895448 1292 1048)" stroke="white"/>
<line y1="-0.5" x2="195.433" y2="-0.5" transform="matrix(-0.895448 -0.445166 -0.445166 0.895448 1292 1055)" stroke="white"/>
<line y1="-0.5" x2="195.433" y2="-0.5" transform="matrix(-0.895448 -0.445166 -0.445166 0.895448 1292 1062)" stroke="white"/>
<line y1="-0.5" x2="195.433" y2="-0.5" transform="matrix(-0.895448 -0.445166 -0.445166 0.895448 1292 1069)" stroke="white"/>
<line y1="-0.5" x2="195.433" y2="-0.5" transform="matrix(-0.895448 -0.445166 -0.445166 0.895448 1292 1076)" stroke="white"/>
<line y1="-0.5" x2="195.433" y2="-0.5" transform="matrix(-0.895448 -0.445166 -0.445166 0.895448 1292 1083)" stroke="white"/>
<line y1="-0.5" x2="195.433" y2="-0.5" transform="matrix(-0.895448 -0.445166 -0.445166 0.895448 1292 1090)" stroke="white"/>
<line y1="-0.5" x2="195.433" y2="-0.5" transform="matrix(-0.895448 -0.445166 -0.445166 0.895448 1292 1097)" stroke="white"/>
<line y1="-0.5" x2="195.433" y2="-0.5" transform="matrix(-0.895448 -0.445166 -0.445166 0.895448 1292 1104)" stroke="white"/>
<line y1="-0.5" x2="195.433" y2="-0.5" transform="matrix(-0.895448 -0.445166 -0.445166 0.895448 1292 1111)" stroke="white"/>
<line y1="-0.5" x2="195.433" y2="-0.5" transform="matrix(-0.895448 -0.445166 -0.445166 0.895448 1292 1118)" stroke="white"/>
<line y1="-0.5" x2="195.433" y2="-0.5" transform="matrix(-0.895448 -0.445166 -0.445166 0.895448 1292 1125)" stroke="white"/>
<line y1="-0.5" x2="195.433" y2="-0.5" transform="matrix(-0.895448 -0.445166 -0.445166 0.895448 1292 1132)" stroke="white"/>
<line y1="-0.5" x2="195.433" y2="-0.5" transform="matrix(-0.895448 -0.445166 -0.445166 0.895448 1292 1139)" stroke="white"/>
<line y1="-0.5" x2="195.433" y2="-0.5" transform="matrix(-0.895448 -0.445166 -0.445166 0.895448 1292 1146)" stroke="white"/>
<line y1="-0.5" x2="195.433" y2="-0.5" transform="matrix(-0.895448 -0.445166 -0.445166 0.895448 1292 1153)" stroke="white"/>
<line y1="-0.5" x2="195.433" y2="-0.5" transform="matrix(-0.895448 -0.445166 -0.445166 0.895448 1292 1160)" stroke="white"/>
<line y1="-0.5" x2="195.433" y2="-0.5" transform="matrix(-0.895448 -0.445166 -0.445166 0.895448 1292 1167)" stroke="white"/>
<line y1="-0.5" x2="195.433" y2="-0.5" transform="matrix(-0.895448 -0.445166 -0.445166 0.895448 1292 1174)" stroke="white"/>
<line y1="-0.5" x2="195.433" y2="-0.5" transform="matrix(-0.895448 -0.445166 -0.445166 0.895448 1292 1181)" stroke="white"/>
<line y1="-0.5" x2="195.433" y2="-0.5" transform="matrix(-0.895448 -0.445166 -0.445166 0.895448 1292 1188)" stroke="white"/>
<line y1="-0.5" x2="195.433" y2="-0.5" transform="matrix(-0.895448 -0.445166 -0.445166 0.895448 1292 1195)" stroke="white"/>
<line y1="-0.5" x2="195.433" y2="-0.5" transform="matrix(-0.895448 -0.445166 -0.445166 0.895448 1292 1202)" stroke="white"/>
<line y1="-0.5" x2="195.433" y2="-0.5" transform="matrix(-0.895448 -0.445166 -0.445166 0.895448 1292 1209)" stroke="white"/>
<line y1="-0.5" x2="195.433" y2="-0.5" transform="matrix(-0.895448 -0.445166 -0.445166 0.895448 1292 1216)" stroke="white"/>
<line y1="-0.5" x2="195.433" y2="-0.5" transform="matrix(-0.895448 -0.445166 -0.445166 0.895448 1292 1223)" stroke="white"/>
<line y1="-0.5" x2="195.433" y2="-0.5" transform="matrix(-0.895448 -0.445166 -0.445166 0.895448 1292 1230)" stroke="white"/>
<line y1="-0.5" x2="195.433" y2="-0.5" transform="matrix(-0.895448 -0.445166 -0.445166 0.895448 1292 1237)" stroke="white"/>
<line y1="-0.5" x2="195.433" y2="-0.5" transform="matrix(-0.895448 -0.445166 -0.445166 0.895448 1292 1244)" stroke="white"/>
<line y1="-0.5" x2="195.433" y2="-0.5" transform="matrix(-0.895448 -0.445166 -0.445166 0.895448 1292 1251)" stroke="white"/>
<line y1="-0.5" x2="195.433" y2="-0.5" transform="matrix(-0.895448 -0.445166 -0.445166 0.895448 1292 1258)" stroke="white"/>
<line y1="-0.5" x2="195.433" y2="-0.5" transform="matrix(-0.895448 -0.445166 -0.445166 0.895448 1292 1265)" stroke="white"/>
<line y1="-0.5" x2="195.433" y2="-0.5" transform="matrix(-0.895448 -0.445166 -0.445166 0.895448 1292 1272)" stroke="white"/>
<line y1="-0.5" x2="195.433" y2="-0.5" transform="matrix(-0.895448 -0.445166 -0.445166 0.895448 1292 1279)" stroke="white"/>
<line y1="-0.5" x2="195.433" y2="-0.5" transform="matrix(-0.895448 -0.445166 -0.445166 0.895448 1292 1286)" stroke="white"/>
</g>
<path d="M1171 919V1815H1169V919H1171ZM1239 1815V919H1241V1815H1239Z" fill="white" mask="url(#path-338-inside-4_257_1651)"/>
</g>
<g opacity="0.4">
<g filter="url(#filter2_b_257_1651)">
<mask id="path-392-inside-5_257_1651" fill="white">
<path d="M103 1H185V670H103V1Z"/>
</mask>
<path d="M103 1H185V670H103V1Z" fill="url(#paint4_linear_257_1651)" fill-opacity="0.7"/>
<path d="M184 1V670H186V1H184ZM104 670V1H102V670H104Z" fill="url(#paint5_linear_257_1651)" mask="url(#path-392-inside-5_257_1651)"/>
</g>
<g filter="url(#filter3_b_257_1651)">
<mask id="path-394-inside-6_257_1651" fill="white">
<path d="M239 1H321V670H239V1Z"/>
</mask>
<path d="M239 1H321V670H239V1Z" fill="url(#paint6_linear_257_1651)" fill-opacity="0.7"/>
<path d="M320 1V670H322V1H320ZM240 670V1H238V670H240Z" fill="url(#paint7_linear_257_1651)" mask="url(#path-394-inside-6_257_1651)"/>
</g>
<g filter="url(#filter4_b_257_1651)">
<mask id="path-396-inside-7_257_1651" fill="white">
<path d="M375 1H457V670H375V1Z"/>
</mask>
<path d="M375 1H457V670H375V1Z" fill="url(#paint8_linear_257_1651)" fill-opacity="0.7"/>
<path d="M456 1V670H458V1H456ZM376 670V1H374V670H376Z" fill="url(#paint9_linear_257_1651)" mask="url(#path-396-inside-7_257_1651)"/>
</g>
<g filter="url(#filter5_b_257_1651)">
<mask id="path-398-inside-8_257_1651" fill="white">
<path d="M511 1H593V670H511V1Z"/>
</mask>
<path d="M511 1H593V670H511V1Z" fill="url(#paint10_linear_257_1651)" fill-opacity="0.7"/>
<path d="M592 1V670H594V1H592ZM512 670V1H510V670H512Z" fill="url(#paint11_linear_257_1651)" mask="url(#path-398-inside-8_257_1651)"/>
</g>
<g filter="url(#filter6_b_257_1651)">
<mask id="path-400-inside-9_257_1651" fill="white">
<path d="M647 1H729V670H647V1Z"/>
</mask>
<path d="M647 1H729V670H647V1Z" fill="url(#paint12_linear_257_1651)" fill-opacity="0.7"/>
<path d="M728 1V670H730V1H728ZM648 670V1H646V670H648Z" fill="url(#paint13_linear_257_1651)" mask="url(#path-400-inside-9_257_1651)"/>
</g>
<g filter="url(#filter7_b_257_1651)">
<mask id="path-402-inside-10_257_1651" fill="white">
<path d="M783 1H865V670H783V1Z"/>
</mask>
<path d="M783 1H865V670H783V1Z" fill="url(#paint14_linear_257_1651)" fill-opacity="0.7"/>
<path d="M864 1V670H866V1H864ZM784 670V1H782V670H784Z" fill="url(#paint15_linear_257_1651)" mask="url(#path-402-inside-10_257_1651)"/>
</g>
<g filter="url(#filter8_b_257_1651)">
<mask id="path-404-inside-11_257_1651" fill="white">
<path d="M919 1H1001V670H919V1Z"/>
</mask>
<path d="M919 1H1001V670H919V1Z" fill="url(#paint16_linear_257_1651)" fill-opacity="0.7"/>
<path d="M1000 1V670H1002V1H1000ZM920 670V1H918V670H920Z" fill="url(#paint17_linear_257_1651)" mask="url(#path-404-inside-11_257_1651)"/>
</g>
<g filter="url(#filter9_b_257_1651)">
<mask id="path-406-inside-12_257_1651" fill="white">
<path d="M1055 1H1137V670H1055V1Z"/>
</mask>
<path d="M1055 1H1137V670H1055V1Z" fill="url(#paint18_linear_257_1651)" fill-opacity="0.7"/>
<path d="M1136 1V670H1138V1H1136ZM1056 670V1H1054V670H1056Z" fill="url(#paint19_linear_257_1651)" mask="url(#path-406-inside-12_257_1651)"/>
</g>
</g>
<rect x="2" width="1238" height="255" fill="url(#paint20_linear_257_1651)"/>
</g>
<defs>
<filter id="filter0_f_257_1651" x="-368.591" y="83.4599" width="1634.18" height="1151.08" filterUnits="userSpaceOnUse" color-interpolation-filters="sRGB">
<feFlood flood-opacity="0" result="BackgroundImageFix"/>
<feBlend mode="normal" in="SourceGraphic" in2="BackgroundImageFix" result="shape"/>
<feGaussianBlur stdDeviation="200" result="effect1_foregroundBlur_257_1651"/>
</filter>
<filter id="filter1_f_257_1651" x="-209" y="358" width="1044" height="932" filterUnits="userSpaceOnUse" color-interpolation-filters="sRGB">
<feFlood flood-opacity="0" result="BackgroundImageFix"/>
<feBlend mode="normal" in="SourceGraphic" in2="BackgroundImageFix" result="shape"/>
<feGaussianBlur stdDeviation="100" result="effect1_foregroundBlur_257_1651"/>
</filter>
<filter id="filter2_b_257_1651" x="99" y="-3" width="90" height="677" filterUnits="userSpaceOnUse" color-interpolation-filters="sRGB">
<feFlood flood-opacity="0" result="BackgroundImageFix"/>
<feGaussianBlur in="BackgroundImageFix" stdDeviation="2"/>
<feComposite in2="SourceAlpha" operator="in" result="effect1_backgroundBlur_257_1651"/>
<feBlend mode="normal" in="SourceGraphic" in2="effect1_backgroundBlur_257_1651" result="shape"/>
</filter>
<filter id="filter3_b_257_1651" x="235" y="-3" width="90" height="677" filterUnits="userSpaceOnUse" color-interpolation-filters="sRGB">
<feFlood flood-opacity="0" result="BackgroundImageFix"/>
<feGaussianBlur in="BackgroundImageFix" stdDeviation="2"/>
<feComposite in2="SourceAlpha" operator="in" result="effect1_backgroundBlur_257_1651"/>
<feBlend mode="normal" in="SourceGraphic" in2="effect1_backgroundBlur_257_1651" result="shape"/>
</filter>
<filter id="filter4_b_257_1651" x="371" y="-3" width="90" height="677" filterUnits="userSpaceOnUse" color-interpolation-filters="sRGB">
<feFlood flood-opacity="0" result="BackgroundImageFix"/>
<feGaussianBlur in="BackgroundImageFix" stdDeviation="2"/>
<feComposite in2="SourceAlpha" operator="in" result="effect1_backgroundBlur_257_1651"/>
<feBlend mode="normal" in="SourceGraphic" in2="effect1_backgroundBlur_257_1651" result="shape"/>
</filter>
<filter id="filter5_b_257_1651" x="507" y="-3" width="90" height="677" filterUnits="userSpaceOnUse" color-interpolation-filters="sRGB">
<feFlood flood-opacity="0" result="BackgroundImageFix"/>
<feGaussianBlur in="BackgroundImageFix" stdDeviation="2"/>
<feComposite in2="SourceAlpha" operator="in" result="effect1_backgroundBlur_257_1651"/>
<feBlend mode="normal" in="SourceGraphic" in2="effect1_backgroundBlur_257_1651" result="shape"/>
</filter>
<filter id="filter6_b_257_1651" x="643" y="-3" width="90" height="677" filterUnits="userSpaceOnUse" color-interpolation-filters="sRGB">
<feFlood flood-opacity="0" result="BackgroundImageFix"/>
<feGaussianBlur in="BackgroundImageFix" stdDeviation="2"/>
<feComposite in2="SourceAlpha" operator="in" result="effect1_backgroundBlur_257_1651"/>
<feBlend mode="normal" in="SourceGraphic" in2="effect1_backgroundBlur_257_1651" result="shape"/>
</filter>
<filter id="filter7_b_257_1651" x="779" y="-3" width="90" height="677" filterUnits="userSpaceOnUse" color-interpolation-filters="sRGB">
<feFlood flood-opacity="0" result="BackgroundImageFix"/>
<feGaussianBlur in="BackgroundImageFix" stdDeviation="2"/>
<feComposite in2="SourceAlpha" operator="in" result="effect1_backgroundBlur_257_1651"/>
<feBlend mode="normal" in="SourceGraphic" in2="effect1_backgroundBlur_257_1651" result="shape"/>
</filter>
<filter id="filter8_b_257_1651" x="915" y="-3" width="90" height="677" filterUnits="userSpaceOnUse" color-interpolation-filters="sRGB">
<feFlood flood-opacity="0" result="BackgroundImageFix"/>
<feGaussianBlur in="BackgroundImageFix" stdDeviation="2"/>
<feComposite in2="SourceAlpha" operator="in" result="effect1_backgroundBlur_257_1651"/>
<feBlend mode="normal" in="SourceGraphic" in2="effect1_backgroundBlur_257_1651" result="shape"/>
</filter>
<filter id="filter9_b_257_1651" x="1051" y="-3" width="90" height="677" filterUnits="userSpaceOnUse" color-interpolation-filters="sRGB">
<feFlood flood-opacity="0" result="BackgroundImageFix"/>
<feGaussianBlur in="BackgroundImageFix" stdDeviation="2"/>
<feComposite in2="SourceAlpha" operator="in" result="effect1_backgroundBlur_257_1651"/>
<feBlend mode="normal" in="SourceGraphic" in2="effect1_backgroundBlur_257_1651" result="shape"/>
</filter>
<linearGradient id="paint0_linear_257_1651" x1="620" y1="0" x2="620" y2="1216.5" gradientUnits="userSpaceOnUse">
<stop/>
<stop offset="0.190338" stop-color="#0A143A"/>
<stop offset="0.504424" stop-color="#0D1E64"/>
<stop offset="0.827865" stop-color="#171F55"/>
<stop offset="1"/>
</linearGradient>
<linearGradient id="paint1_linear_257_1651" x1="620" y1="0" x2="620" y2="1216.5" gradientUnits="userSpaceOnUse">
<stop/>
<stop offset="0.190338" stop-color="#0A143A"/>
<stop offset="0.504424" stop-color="#0D1E64"/>
<stop offset="0.827865" stop-color="#171F55"/>
<stop offset="1"/>
</linearGradient>
<linearGradient id="paint2_linear_257_1651" x1="215.84" y1="553.543" x2="443.45" y2="671.351" gradientUnits="userSpaceOnUse">
<stop stop-color="#B0D4FF"/>
<stop offset="1" stop-color="#0B90CE"/>
</linearGradient>
<linearGradient id="paint3_linear_257_1651" x1="135.684" y1="650.841" x2="343.623" y2="700.796" gradientUnits="userSpaceOnUse">
<stop stop-color="#B0D4FF"/>
<stop offset="1" stop-color="#0B90CE"/>
</linearGradient>
<linearGradient id="paint4_linear_257_1651" x1="144" y1="1" x2="144" y2="670" gradientUnits="userSpaceOnUse">
<stop stop-color="#425089"/>
<stop offset="1" stop-color="#0062FF" stop-opacity="0"/>
</linearGradient>
<linearGradient id="paint5_linear_257_1651" x1="144" y1="1" x2="144" y2="670" gradientUnits="userSpaceOnUse">
<stop stop-color="#425089"/>
<stop offset="1" stop-color="#0062FF" stop-opacity="0"/>
</linearGradient>
<linearGradient id="paint6_linear_257_1651" x1="280" y1="1" x2="280" y2="670" gradientUnits="userSpaceOnUse">
<stop stop-color="#425089"/>
<stop offset="1" stop-color="#0062FF" stop-opacity="0"/>
</linearGradient>
<linearGradient id="paint7_linear_257_1651" x1="280" y1="1" x2="280" y2="670" gradientUnits="userSpaceOnUse">
<stop stop-color="#425089"/>
<stop offset="1" stop-color="#0062FF" stop-opacity="0"/>
</linearGradient>
<linearGradient id="paint8_linear_257_1651" x1="416" y1="1" x2="416" y2="670" gradientUnits="userSpaceOnUse">
<stop stop-color="#425089"/>
<stop offset="1" stop-color="#0062FF" stop-opacity="0"/>
</linearGradient>
<linearGradient id="paint9_linear_257_1651" x1="416" y1="1" x2="416" y2="670" gradientUnits="userSpaceOnUse">
<stop stop-color="#425089"/>
<stop offset="1" stop-color="#0062FF" stop-opacity="0"/>
</linearGradient>
<linearGradient id="paint10_linear_257_1651" x1="552" y1="1" x2="552" y2="670" gradientUnits="userSpaceOnUse">
<stop stop-color="#425089"/>
<stop offset="1" stop-color="#0062FF" stop-opacity="0"/>
</linearGradient>
<linearGradient id="paint11_linear_257_1651" x1="552" y1="1" x2="552" y2="670" gradientUnits="userSpaceOnUse">
<stop stop-color="#425089"/>
<stop offset="1" stop-color="#0062FF" stop-opacity="0"/>
</linearGradient>
<linearGradient id="paint12_linear_257_1651" x1="688" y1="1" x2="688" y2="670" gradientUnits="userSpaceOnUse">
<stop stop-color="#425089"/>
<stop offset="1" stop-color="#0062FF" stop-opacity="0"/>
</linearGradient>
<linearGradient id="paint13_linear_257_1651" x1="688" y1="1" x2="688" y2="670" gradientUnits="userSpaceOnUse">
<stop stop-color="#425089"/>
<stop offset="1" stop-color="#0062FF" stop-opacity="0"/>
</linearGradient>
<linearGradient id="paint14_linear_257_1651" x1="824" y1="1" x2="824" y2="670" gradientUnits="userSpaceOnUse">
<stop stop-color="#425089"/>
<stop offset="1" stop-color="#0062FF" stop-opacity="0"/>
</linearGradient>
<linearGradient id="paint15_linear_257_1651" x1="824" y1="1" x2="824" y2="670" gradientUnits="userSpaceOnUse">
<stop stop-color="#425089"/>
<stop offset="1" stop-color="#0062FF" stop-opacity="0"/>
</linearGradient>
<linearGradient id="paint16_linear_257_1651" x1="960" y1="1" x2="960" y2="670" gradientUnits="userSpaceOnUse">
<stop stop-color="#425089"/>
<stop offset="1" stop-color="#0062FF" stop-opacity="0"/>
</linearGradient>
<linearGradient id="paint17_linear_257_1651" x1="960" y1="1" x2="960" y2="670" gradientUnits="userSpaceOnUse">
<stop stop-color="#425089"/>
<stop offset="1" stop-color="#0062FF" stop-opacity="0"/>
</linearGradient>
<linearGradient id="paint18_linear_257_1651" x1="1096" y1="1" x2="1096" y2="670" gradientUnits="userSpaceOnUse">
<stop stop-color="#425089"/>
<stop offset="1" stop-color="#0062FF" stop-opacity="0"/>
</linearGradient>
<linearGradient id="paint19_linear_257_1651" x1="1096" y1="1" x2="1096" y2="670" gradientUnits="userSpaceOnUse">
<stop stop-color="#425089"/>
<stop offset="1" stop-color="#0062FF" stop-opacity="0"/>
</linearGradient>
<linearGradient id="paint20_linear_257_1651" x1="621" y1="255" x2="621" y2="0" gradientUnits="userSpaceOnUse">
<stop stop-opacity="0"/>
<stop offset="1"/>
</linearGradient>
<clipPath id="clip0_257_1651">
<path d="M1240 0H1170V919H1240V0Z" fill="white"/>
</clipPath>
<clipPath id="clip1_257_1651">
<path d="M1 -2H71V917H1V-2Z" fill="white"/>
</clipPath>
<clipPath id="clip2_257_1651">
<path d="M1 915H71V1834H1V915Z" fill="white"/>
</clipPath>
<clipPath id="clip3_257_1651">
<path d="M1240 919H1170V1815H1240V919Z" fill="white"/>
</clipPath>
</defs>
</svg>
